 <svg  version="1.0" xmlns="http://www.w3.org/2000/svg"  width="213.000000pt" height="172.000000pt" viewBox="0 0 213.000000 172.000000"  preserveAspectRatio="xMidYMid meet">  <g transform="translate(0.000000,172.000000) scale(0.050000,-0.050000)" fill="#beb8e1" stroke="none"> <path d="M1640 3236 c-107 -71 -145 -161 -132 -311 l10 -125 -686 0 c-647 0 -688 -2 -720 -38 -31 -35 -34 -131 -33 -1214 l1 -1175 48 -74 c98 -147 -21 -139 1995 -139 2026 0 1878 -11 1974 145 62 101 70 2420 9 2466 -29 22 -175 28 -723 28 l-687 1 5 105 c7 187 1 213 -69 290 l-69 75 -427 6 c-418 6 -428 5 -496 -40z m836 -321 l6 -115 -371 0 -371 0 0 107 c0 141 -20 135 379 128 l351 -5 6 -115z m1444 -610 l0 -256 -606 -151 -606 -151 -35 47 -35 46 -520 0 c-512 0 -520 -1 -564 -45 l-44 -45 -605 150 -605 150 0 255 0 255 1810 0 1810 0 0 -255z m-3074 -636 c288 -72 557 -140 598 -150 l74 -20 -12 -139 c-9 -110 -5 -149 22 -189 l33 -51 547 0 c645 0 605 -15 596 223 l-6 156 56 13 c31 8 302 75 603 151 301 75 551 137 555 137 19 0 7 -1325 -13 -1361 -32 -61 -3546 -61 -3578 0 -21 39 -31 1361 -10 1361 5 0 246 -59 535 -131z m1634 -189 l0 -120 -370 0 -370 0 0 120 0 120 370 0 370 0 0 -120z"/> </g> </svg> 