<?xml version="1.0" standalone="no"?>
<!DOCTYPE svg PUBLIC "-//W3C//DTD SVG 20010904//EN"
 "http://www.w3.org/TR/2001/REC-SVG-20010904/DTD/svg10.dtd">
<svg version="1.0" xmlns="http://www.w3.org/2000/svg"
 width="219.000000pt" height="198.000000pt" viewBox="0 0 219.000000 198.000000"
 preserveAspectRatio="xMidYMid meet">
<metadata>
Created by potrace 1.10, written by Peter Selinger 2001-2011
</metadata>
<g transform="translate(0.000000,198.000000) scale(0.050000,-0.050000)"
fill="#4b2d83" stroke="none">
<path d="M2084 3740 c-514 -108 -715 -746 -361 -1149 315 -357 918 -269 1132
166 247 505 -218 1098 -771 983z m356 -280 c418 -215 261 -848 -210 -848 -256
0 -450 194 -450 451 0 337 358 552 660 397z"/>
<path d="M660 3208 c-436 -189 -305 -834 170 -837 470 -3 601 656 166 838 -94
39 -245 39 -336 -1z m296 -258 c71 -60 90 -137 54 -224 -68 -161 -294 -158
-362 5 -79 190 150 352 308 219z"/>
<path d="M3470 3212 c-482 -210 -265 -940 247 -835 332 68 466 448 248 703
-123 145 -337 201 -495 132z m269 -242 c154 -79 105 -329 -70 -361 -191 -36
-309 194 -171 333 67 66 150 76 241 28z"/>
<path d="M550 2059 c-310 -119 -349 -220 -351 -913 -2 -731 -39 -686 556 -686
l396 0 30 -84 c19 -55 53 -101 97 -130 l68 -46 882 0 c840 0 885 2 946 39 64
39 126 132 126 190 0 27 52 31 399 31 604 0 571 -40 571 690 l0 540 -54 103
c-209 395 -931 424 -1127 44 l-31 -59 -94 83 c-370 327 -1098 326 -1469 -1
l-93 -82 -30 58 c-117 227 -525 338 -822 223z m524 -251 c141 -105 176 -237
116 -436 -21 -68 -30 -190 -30 -396 l0 -297 -365 6 -365 5 4 476 c4 545 10
570 166 650 121 62 385 58 474 -8z m1552 -14 c337 -154 420 -325 435 -894 7
-236 8 -437 4 -445 -10 -20 -1661 -20 -1669 0 -3 8 -2 209 4 445 l11 430 62
121 c66 127 196 261 310 321 199 104 639 116 843 22z m1268 10 c134 -95 136
-104 136 -634 l0 -480 -365 -5 -365 -6 -1 316 c0 222 -9 339 -30 395 -72 200
8 394 183 450 107 35 374 13 442 -36z"/>
</g>
</svg>
