<svg version="1.0" xmlns="http://www.w3.org/2000/svg" width="237.000000pt" height="250.000000pt"
  viewBox="0 0 237.000000 250.000000" preserveAspectRatio="xMidYMid meet">
  <g transform="translate(0.000000,250.000000) scale(0.050000,-0.050000)" fill="#bdb7df"
    stroke="none">
    <path
      d="M3730 4634 c-239 -114 -366 -370 -304 -608 l28 -104 -302 -302 -302 -302 -70 34 c-125 61 -395 63 -527 2 l-110 -51 -220 220 c-217 217 -219 220 -191 273 139 268 -190 638 -487 547 -479 -145 -391 -813 107 -813 l148 0 218 -218 218 -217 -52 -112 c-68 -147 -74 -368 -14 -500 l40 -86 -437 -438 -437 -438 -58 30 c-424 219 -906 -319 -669 -748 313 -564 1182 -193 982 419 l-34 105 419 419 420 420 106 -53 c58 -29 118 -53 132 -53 20 0 26 -71 26 -326 l0 -326 -65 -24 c-534 -193 -350 -1025 227 -1024 558 1 723 836 203 1024 l-65 24 0 326 c0 238 6 326 24 326 13 0 63 19 112 43 l88 43 240 -240 c227 -227 239 -243 215 -287 -167 -313 248 -682 578 -513 414 212 198 851 -261 773 -74 -12 -78 -9 -322 233 l-246 245 45 90 c89 175 79 451 -22 600 l-46 68 283 283 c306 305 294 298 394 247 225 -115 564 13 686 259 220 442 -258 941 -698 730z m350 -219 c295 -151 200 -575 -130 -575 -293 0 -421 334 -205 536 96 89 210 103 335 39z m-2610 -343 c153 -153 -2 -386 -201 -303 -78 33 -109 83 -109 177 0 156 199 237 310 126z m1282 -965 c282 -173 282 -607 1 -767 -334 -191 -693 13 -693 394 1 352 388 560 692 373z m1098 -1495 c139 -139 29 -359 -162 -323 -160 30 -203 318 -53 357 93 25 168 13 215 -34z m-2912 -291 c114 -58 178 -209 143 -339 -64 -235 -361 -313 -524 -138 -242 258 62 640 381 477z m1717 -155 c285 -135 174 -576 -145 -576 -77 0 -123 12 -164 42 -323 239 -53 706 309 534z" />
  </g>
</svg> 